<svg width="17" height="16" viewBox="0 0 17 16" fill="none" xmlns="http://www.w3.org/2000/svg">
<path d="M12.9715 8.45018C12.9639 7.15472 13.5508 6.17837 14.7361 5.45845C14.0732 4.5087 13.0702 3.98633 11.7482 3.88566C10.4964 3.78689 9.12685 4.61507 8.62538 4.61507C8.09542 4.61507 6.88353 3.91985 5.92998 3.91985C3.96209 3.95024 1.87073 5.48885 1.87073 8.61924C1.87073 9.5443 2.03978 10.4998 2.3779 11.4837C2.82998 12.7792 4.45976 15.9532 6.15982 15.902C7.04879 15.8811 7.67753 15.2713 8.83433 15.2713C9.95694 15.2713 10.5382 15.902 11.5297 15.902C13.245 15.8773 14.719 12.9919 15.1483 11.6926C12.848 10.608 12.9715 8.51666 12.9715 8.45018V8.45018ZM10.9751 2.65668C11.9381 1.51317 11.8508 0.472241 11.8223 0.0980377C10.9713 0.147425 9.98733 0.677388 9.42698 1.32892C8.80964 2.02794 8.44683 2.89222 8.52471 3.86666C9.44407 3.93695 10.2837 3.46397 10.9751 2.65668V2.65668Z" fill="white"/>
</svg>
