<svg width="281" height="378" viewBox="0 0 281 378" fill="none" xmlns="http://www.w3.org/2000/svg">
<g filter="url(#filter0_b_17_185)">
<rect x="51" width="232" height="349" rx="16" transform="rotate(8 51 0)" fill="#4E4E61" fill-opacity="0.35"/>
<rect x="51" width="232" height="349" rx="16" transform="rotate(8 51 0)" fill="url(#paint0_linear_17_185)" fill-opacity="0.75"/>
<rect x="51.4255" y="0.564721" width="231" height="348" rx="15.5" transform="rotate(8 51.4255 0.564721)" stroke="url(#paint1_linear_17_185)" stroke-opacity="0.15"/>
</g>
<g filter="url(#filter1_b_17_185)">
<rect x="28" width="232" height="349" rx="16" transform="rotate(4 28 0)" fill="#4E4E61" fill-opacity="0.75"/>
<rect x="28" width="232" height="349" rx="16" transform="rotate(4 28 0)" fill="url(#paint2_linear_17_185)" fill-opacity="0.75"/>
<rect x="28.4639" y="0.53366" width="231" height="348" rx="15.5" transform="rotate(4 28.4639 0.53366)" stroke="url(#paint3_linear_17_185)" stroke-opacity="0.15"/>
</g>
<g filter="url(#filter2_b_17_185)">
<g clip-path="url(#clip0_17_185)">
<rect width="232" height="349" rx="16" fill="#252530"/>
<circle opacity="0.5" cx="226" cy="58" r="130" fill="white" fill-opacity="0.1"/>
<circle opacity="0.5" cx="134.5" cy="314.5" r="189.5" fill="url(#paint4_linear_17_185)" fill-opacity="0.1"/>
<path d="M120.75 290H131C133.209 290 135 291.791 135 294V299.389V306.611V312C135 314.209 133.209 316 131 316H120.75H111.25H101C98.7909 316 97 314.209 97 312V306.611V299.389V294C97 291.791 98.7909 290 101 290H111.25H120.75Z" fill="#F6C859"/>
<path d="M111.25 290H120.75M111.25 290H101C98.7909 290 97 291.791 97 294V299.389M111.25 290V294.694M120.75 290H131C133.209 290 135 291.791 135 294V299.389M120.75 290V294.694H111.25M111.25 316H101C98.7909 316 97 314.209 97 312V306.611M111.25 316H120.75M111.25 316V311.306M120.75 316H131C133.209 316 135 314.209 135 312V306.611M120.75 316V311.306M97 306.611V299.389M97 306.611H111.25M135 306.611V299.389M135 306.611H120.75M97 299.389H111.25M135 299.389H120.75V306.611M111.25 299.389V306.611M111.25 299.389V294.694M111.25 306.611V311.306M120.75 306.611V311.306M111.25 311.306H120.75" stroke="#7D662D"/>
<path d="M99.9623 268.194C99.1436 268.194 98.441 267.987 97.8543 267.572C97.271 267.155 96.8219 266.553 96.507 265.768C96.1955 264.979 96.0397 264.029 96.0397 262.919C96.043 261.809 96.2004 260.864 96.512 260.085C96.8269 259.303 97.276 258.706 97.8593 258.295C98.4459 257.884 99.1469 257.679 99.9623 257.679C100.778 257.679 101.479 257.884 102.065 258.295C102.652 258.706 103.101 259.303 103.413 260.085C103.727 260.867 103.885 261.812 103.885 262.919C103.885 264.033 103.727 264.984 103.413 265.773C103.101 266.558 102.652 267.158 102.065 267.572C101.482 267.987 100.781 268.194 99.9623 268.194ZM99.9623 266.638C100.599 266.638 101.101 266.325 101.469 265.698C101.84 265.068 102.025 264.142 102.025 262.919C102.025 262.11 101.941 261.431 101.772 260.881C101.603 260.33 101.364 259.916 101.056 259.638C100.748 259.356 100.383 259.215 99.9623 259.215C99.3292 259.215 98.8287 259.53 98.4608 260.16C98.093 260.786 97.9073 261.706 97.904 262.919C97.9007 263.731 97.9819 264.414 98.1476 264.967C98.3167 265.521 98.5553 265.938 98.8635 266.22C99.1718 266.499 99.538 266.638 99.9623 266.638ZM109.156 268.139C108.417 268.139 107.761 268.015 107.187 267.766C106.617 267.518 106.17 267.178 105.845 266.747C105.523 266.313 105.364 265.821 105.368 265.271C105.364 264.843 105.457 264.45 105.646 264.092C105.835 263.734 106.09 263.436 106.412 263.197C106.736 262.955 107.098 262.801 107.495 262.735V262.665C106.972 262.549 106.548 262.283 106.223 261.865C105.901 261.444 105.742 260.959 105.745 260.408C105.742 259.885 105.888 259.417 106.183 259.006C106.478 258.595 106.882 258.272 107.396 258.037C107.91 257.798 108.496 257.679 109.156 257.679C109.809 257.679 110.391 257.798 110.901 258.037C111.415 258.272 111.819 258.595 112.114 259.006C112.412 259.417 112.562 259.885 112.562 260.408C112.562 260.959 112.397 261.444 112.069 261.865C111.745 262.283 111.325 262.549 110.812 262.665V262.735C111.209 262.801 111.567 262.955 111.885 263.197C112.207 263.436 112.462 263.734 112.651 264.092C112.843 264.45 112.939 264.843 112.939 265.271C112.939 265.821 112.777 266.313 112.452 266.747C112.127 267.178 111.68 267.518 111.11 267.766C110.543 268.015 109.892 268.139 109.156 268.139ZM109.156 266.717C109.537 266.717 109.869 266.653 110.15 266.523C110.432 266.391 110.651 266.205 110.807 265.967C110.962 265.728 111.042 265.453 111.045 265.141C111.042 264.817 110.957 264.53 110.792 264.281C110.629 264.029 110.406 263.832 110.12 263.69C109.839 263.547 109.517 263.476 109.156 263.476C108.791 263.476 108.467 263.547 108.182 263.69C107.897 263.832 107.671 264.029 107.505 264.281C107.343 264.53 107.263 264.817 107.267 265.141C107.263 265.453 107.34 265.728 107.495 265.967C107.651 266.202 107.87 266.386 108.152 266.518C108.437 266.651 108.772 266.717 109.156 266.717ZM109.156 262.079C109.468 262.079 109.743 262.016 109.981 261.89C110.223 261.764 110.414 261.588 110.553 261.363C110.692 261.138 110.763 260.877 110.767 260.582C110.763 260.291 110.694 260.036 110.558 259.817C110.422 259.595 110.233 259.424 109.991 259.305C109.749 259.182 109.471 259.121 109.156 259.121C108.834 259.121 108.551 259.182 108.306 259.305C108.064 259.424 107.875 259.595 107.739 259.817C107.607 260.036 107.542 260.291 107.545 260.582C107.542 260.877 107.608 261.138 107.744 261.363C107.883 261.585 108.074 261.761 108.316 261.89C108.561 262.016 108.841 262.079 109.156 262.079ZM118.75 257.341L115.469 269.531H113.893L117.174 257.341H118.75ZM119.878 268V266.668L123.413 263.202C123.751 262.861 124.033 262.558 124.258 262.293C124.484 262.027 124.653 261.771 124.766 261.522C124.878 261.273 124.935 261.008 124.935 260.727C124.935 260.405 124.862 260.13 124.716 259.901C124.57 259.669 124.369 259.49 124.114 259.364C123.859 259.238 123.569 259.175 123.244 259.175C122.909 259.175 122.616 259.245 122.364 259.384C122.112 259.52 121.917 259.714 121.778 259.966C121.642 260.218 121.574 260.518 121.574 260.866H119.819C119.819 260.219 119.966 259.658 120.261 259.18C120.556 258.703 120.962 258.334 121.479 258.072C122 257.81 122.596 257.679 123.269 257.679C123.952 257.679 124.552 257.807 125.069 258.062C125.586 258.317 125.987 258.667 126.272 259.111C126.56 259.555 126.704 260.062 126.704 260.632C126.704 261.013 126.632 261.388 126.486 261.756C126.34 262.124 126.083 262.531 125.715 262.979C125.351 263.426 124.838 263.968 124.179 264.604L122.424 266.389V266.459H126.859V268H119.878ZM132.193 268.139C131.454 268.139 130.798 268.015 130.224 267.766C129.654 267.518 129.207 267.178 128.882 266.747C128.561 266.313 128.401 265.821 128.405 265.271C128.401 264.843 128.494 264.45 128.683 264.092C128.872 263.734 129.127 263.436 129.449 263.197C129.774 262.955 130.135 262.801 130.533 262.735V262.665C130.009 262.549 129.585 262.283 129.26 261.865C128.938 261.444 128.779 260.959 128.783 260.408C128.779 259.885 128.925 259.417 129.22 259.006C129.515 258.595 129.919 258.272 130.433 258.037C130.947 257.798 131.534 257.679 132.193 257.679C132.846 257.679 133.428 257.798 133.938 258.037C134.452 258.272 134.856 258.595 135.151 259.006C135.449 259.417 135.599 259.885 135.599 260.408C135.599 260.959 135.435 261.444 135.106 261.865C134.782 262.283 134.362 262.549 133.849 262.665V262.735C134.246 262.801 134.604 262.955 134.922 263.197C135.244 263.436 135.499 263.734 135.688 264.092C135.88 264.45 135.976 264.843 135.976 265.271C135.976 265.821 135.814 266.313 135.489 266.747C135.164 267.178 134.717 267.518 134.147 267.766C133.58 268.015 132.929 268.139 132.193 268.139ZM132.193 266.717C132.574 266.717 132.906 266.653 133.187 266.523C133.469 266.391 133.688 266.205 133.844 265.967C133.999 265.728 134.079 265.453 134.082 265.141C134.079 264.817 133.994 264.53 133.829 264.281C133.666 264.029 133.443 263.832 133.158 263.69C132.876 263.547 132.554 263.476 132.193 263.476C131.829 263.476 131.504 263.547 131.219 263.69C130.934 263.832 130.708 264.029 130.543 264.281C130.38 264.53 130.301 264.817 130.304 265.141C130.301 265.453 130.377 265.728 130.533 265.967C130.688 266.202 130.907 266.386 131.189 266.518C131.474 266.651 131.809 266.717 132.193 266.717ZM132.193 262.079C132.505 262.079 132.78 262.016 133.018 261.89C133.26 261.764 133.451 261.588 133.59 261.363C133.729 261.138 133.801 260.877 133.804 260.582C133.801 260.291 133.731 260.036 133.595 259.817C133.459 259.595 133.27 259.424 133.028 259.305C132.786 259.182 132.508 259.121 132.193 259.121C131.872 259.121 131.588 259.182 131.343 259.305C131.101 259.424 130.912 259.595 130.776 259.817C130.644 260.036 130.579 260.291 130.582 260.582C130.579 260.877 130.645 261.138 130.781 261.363C130.92 261.585 131.111 261.761 131.353 261.89C131.598 262.016 131.878 262.079 132.193 262.079Z" fill="white"/>
<path d="M36.7784 233.909L36.9091 231.608L34.9773 232.875L34.2841 231.67L36.3466 230.636L34.2841 229.602L34.9773 228.398L36.9091 229.665L36.7784 227.364H38.1591L38.0341 229.665L39.9659 228.398L40.6591 229.602L38.5909 230.636L40.6591 231.67L39.9659 232.875L38.0341 231.608L38.1591 233.909H36.7784ZM45.4659 233.909L45.5966 231.608L43.6648 232.875L42.9716 231.67L45.0341 230.636L42.9716 229.602L43.6648 228.398L45.5966 229.665L45.4659 227.364H46.8466L46.7216 229.665L48.6534 228.398L49.3466 229.602L47.2784 230.636L49.3466 231.67L48.6534 232.875L46.7216 231.608L46.8466 233.909H45.4659ZM54.1534 233.909L54.2841 231.608L52.3523 232.875L51.6591 231.67L53.7216 230.636L51.6591 229.602L52.3523 228.398L54.2841 229.665L54.1534 227.364H55.5341L55.4091 229.665L57.3409 228.398L58.0341 229.602L55.9659 230.636L58.0341 231.67L57.3409 232.875L55.4091 231.608L55.5341 233.909H54.1534ZM62.8409 233.909L62.9716 231.608L61.0398 232.875L60.3466 231.67L62.4091 230.636L60.3466 229.602L61.0398 228.398L62.9716 229.665L62.8409 227.364H64.2216L64.0966 229.665L66.0284 228.398L66.7216 229.602L64.6534 230.636L66.7216 231.67L66.0284 232.875L64.0966 231.608L64.2216 233.909H62.8409Z" fill="white"/>
<path d="M79.7784 233.909L79.9091 231.608L77.9773 232.875L77.2841 231.67L79.3466 230.636L77.2841 229.602L77.9773 228.398L79.9091 229.665L79.7784 227.364H81.1591L81.0341 229.665L82.9659 228.398L83.6591 229.602L81.5909 230.636L83.6591 231.67L82.9659 232.875L81.0341 231.608L81.1591 233.909H79.7784ZM88.4659 233.909L88.5966 231.608L86.6648 232.875L85.9716 231.67L88.0341 230.636L85.9716 229.602L86.6648 228.398L88.5966 229.665L88.4659 227.364H89.8466L89.7216 229.665L91.6534 228.398L92.3466 229.602L90.2784 230.636L92.3466 231.67L91.6534 232.875L89.7216 231.608L89.8466 233.909H88.4659ZM97.1534 233.909L97.2841 231.608L95.3523 232.875L94.6591 231.67L96.7216 230.636L94.6591 229.602L95.3523 228.398L97.2841 229.665L97.1534 227.364H98.5341L98.4091 229.665L100.341 228.398L101.034 229.602L98.9659 230.636L101.034 231.67L100.341 232.875L98.4091 231.608L98.5341 233.909H97.1534ZM105.841 233.909L105.972 231.608L104.04 232.875L103.347 231.67L105.409 230.636L103.347 229.602L104.04 228.398L105.972 229.665L105.841 227.364H107.222L107.097 229.665L109.028 228.398L109.722 229.602L107.653 230.636L109.722 231.67L109.028 232.875L107.097 231.608L107.222 233.909H105.841Z" fill="white"/>
<path d="M122.778 233.909L122.909 231.608L120.977 232.875L120.284 231.67L122.347 230.636L120.284 229.602L120.977 228.398L122.909 229.665L122.778 227.364H124.159L124.034 229.665L125.966 228.398L126.659 229.602L124.591 230.636L126.659 231.67L125.966 232.875L124.034 231.608L124.159 233.909H122.778ZM131.466 233.909L131.597 231.608L129.665 232.875L128.972 231.67L131.034 230.636L128.972 229.602L129.665 228.398L131.597 229.665L131.466 227.364H132.847L132.722 229.665L134.653 228.398L135.347 229.602L133.278 230.636L135.347 231.67L134.653 232.875L132.722 231.608L132.847 233.909H131.466ZM140.153 233.909L140.284 231.608L138.352 232.875L137.659 231.67L139.722 230.636L137.659 229.602L138.352 228.398L140.284 229.665L140.153 227.364H141.534L141.409 229.665L143.341 228.398L144.034 229.602L141.966 230.636L144.034 231.67L143.341 232.875L141.409 231.608L141.534 233.909H140.153ZM148.841 233.909L148.972 231.608L147.04 232.875L146.347 231.67L148.409 230.636L146.347 229.602L147.04 228.398L148.972 229.665L148.841 227.364H150.222L150.097 229.665L152.028 228.398L152.722 229.602L150.653 230.636L152.722 231.67L152.028 232.875L150.097 231.608L150.222 233.909H148.841Z" fill="white"/>
<path d="M163.495 239V237.477L167.535 233.517C167.921 233.127 168.243 232.78 168.501 232.477C168.758 232.174 168.951 231.881 169.08 231.597C169.209 231.312 169.273 231.009 169.273 230.688C169.273 230.32 169.19 230.006 169.023 229.744C168.857 229.479 168.628 229.275 168.336 229.131C168.044 228.987 167.713 228.915 167.342 228.915C166.959 228.915 166.624 228.994 166.336 229.153C166.048 229.309 165.825 229.53 165.665 229.818C165.51 230.106 165.433 230.449 165.433 230.847H163.427C163.427 230.108 163.595 229.466 163.933 228.92C164.27 228.375 164.734 227.953 165.325 227.653C165.919 227.354 166.601 227.205 167.37 227.205C168.15 227.205 168.836 227.35 169.427 227.642C170.018 227.934 170.476 228.333 170.802 228.841C171.131 229.348 171.296 229.928 171.296 230.58C171.296 231.015 171.213 231.443 171.046 231.864C170.879 232.284 170.586 232.75 170.165 233.261C169.749 233.773 169.164 234.392 168.41 235.119L166.404 237.159V237.239H171.472V239H163.495ZM178.165 227.364V239H176.058V229.415H175.989L173.268 231.153V229.222L176.16 227.364H178.165ZM185.16 227.205C185.717 227.208 186.258 227.307 186.785 227.5C187.315 227.689 187.792 228 188.217 228.432C188.641 228.86 188.978 229.434 189.228 230.153C189.478 230.873 189.603 231.763 189.603 232.824C189.607 233.824 189.501 234.718 189.285 235.506C189.073 236.29 188.768 236.953 188.37 237.494C187.972 238.036 187.493 238.449 186.933 238.733C186.372 239.017 185.741 239.159 185.04 239.159C184.306 239.159 183.654 239.015 183.086 238.727C182.522 238.439 182.065 238.045 181.717 237.545C181.368 237.045 181.154 236.473 181.075 235.83H183.148C183.254 236.292 183.47 236.659 183.796 236.932C184.126 237.201 184.54 237.335 185.04 237.335C185.847 237.335 186.469 236.985 186.904 236.284C187.34 235.583 187.558 234.61 187.558 233.364H187.478C187.292 233.697 187.052 233.985 186.756 234.227C186.461 234.466 186.126 234.65 185.751 234.778C185.379 234.907 184.986 234.972 184.569 234.972C183.887 234.972 183.273 234.809 182.728 234.483C182.186 234.157 181.756 233.71 181.438 233.142C181.124 232.574 180.965 231.924 180.961 231.193C180.961 230.436 181.135 229.756 181.484 229.153C181.836 228.547 182.326 228.07 182.955 227.722C183.584 227.369 184.319 227.197 185.16 227.205ZM185.165 228.909C184.756 228.909 184.387 229.009 184.058 229.21C183.732 229.407 183.474 229.676 183.285 230.017C183.099 230.354 183.006 230.731 183.006 231.148C183.01 231.561 183.103 231.936 183.285 232.273C183.47 232.61 183.722 232.877 184.04 233.074C184.362 233.271 184.73 233.369 185.143 233.369C185.45 233.369 185.736 233.311 186.001 233.193C186.266 233.076 186.497 232.913 186.694 232.705C186.895 232.492 187.05 232.252 187.16 231.983C187.273 231.714 187.328 231.43 187.325 231.131C187.325 230.733 187.23 230.366 187.04 230.028C186.855 229.691 186.599 229.42 186.273 229.216C185.951 229.011 185.582 228.909 185.165 228.909ZM191.609 239L196.558 229.205V229.125H190.813V227.364H198.739V229.165L193.796 239H191.609Z" fill="white"/>
<path d="M79.7834 209L77.3203 200.273H79.0206L80.593 206.686H80.674L82.353 200.273H83.8999L85.5831 206.69H85.6598L87.2322 200.273H88.9325L86.4695 209H84.9098L83.1626 202.876H83.0945L81.343 209H79.7834ZM92.1903 209.128C91.5341 209.128 90.9673 208.991 90.4901 208.719C90.0156 208.443 89.6506 208.054 89.3949 207.551C89.1392 207.045 89.0114 206.45 89.0114 205.766C89.0114 205.092 89.1392 204.501 89.3949 203.993C89.6534 203.482 90.0142 203.084 90.4773 202.8C90.9403 202.513 91.4844 202.369 92.1094 202.369C92.5128 202.369 92.8935 202.435 93.2514 202.565C93.6122 202.693 93.9304 202.892 94.206 203.162C94.4844 203.432 94.7031 203.776 94.8622 204.193C95.0213 204.608 95.1009 205.102 95.1009 205.676V206.149H89.7358V205.109H93.6222C93.6193 204.814 93.5554 204.551 93.4304 204.321C93.3054 204.088 93.1307 203.905 92.9062 203.771C92.6847 203.638 92.4261 203.571 92.1307 203.571C91.8153 203.571 91.5384 203.648 91.2997 203.801C91.0611 203.952 90.875 204.151 90.7415 204.398C90.6108 204.642 90.544 204.911 90.5412 205.203V206.111C90.5412 206.491 90.6108 206.818 90.75 207.091C90.8892 207.361 91.0838 207.568 91.3338 207.713C91.5838 207.855 91.8764 207.926 92.2116 207.926C92.4361 207.926 92.6392 207.895 92.821 207.832C93.0028 207.767 93.1605 207.672 93.294 207.547C93.4276 207.422 93.5284 207.267 93.5966 207.082L95.0369 207.244C94.946 207.625 94.7727 207.957 94.517 208.241C94.2642 208.523 93.9403 208.741 93.5455 208.898C93.1506 209.051 92.6989 209.128 92.1903 209.128ZM97.9485 205.165V209H96.4059V202.455H97.8803V203.567H97.957C98.1076 203.2 98.3477 202.909 98.6772 202.693C99.0096 202.477 99.4201 202.369 99.9087 202.369C100.36 202.369 100.754 202.466 101.089 202.659C101.427 202.852 101.689 203.132 101.873 203.499C102.061 203.865 102.153 204.31 102.15 204.832V209H100.608V205.071C100.608 204.634 100.494 204.291 100.267 204.044C100.042 203.797 99.7312 203.673 99.3335 203.673C99.0636 203.673 98.8235 203.733 98.6133 203.852C98.4059 203.969 98.2425 204.138 98.1232 204.359C98.0067 204.581 97.9485 204.849 97.9485 205.165ZM104.443 211.455C104.233 211.455 104.038 211.438 103.859 211.403C103.683 211.372 103.542 211.335 103.437 211.293L103.795 210.091C104.02 210.156 104.22 210.188 104.396 210.185C104.572 210.182 104.727 210.126 104.86 210.018C104.997 209.913 105.112 209.737 105.206 209.49L105.338 209.136L102.964 202.455H104.6L106.109 207.398H106.177L107.69 202.455H109.331L106.71 209.793C106.588 210.139 106.426 210.436 106.224 210.683C106.022 210.933 105.775 211.124 105.483 211.254C105.193 211.388 104.846 211.455 104.443 211.455ZM113.031 209.128C112.391 209.128 111.837 208.987 111.369 208.706C110.9 208.425 110.536 208.031 110.278 207.526C110.022 207.02 109.894 206.429 109.894 205.753C109.894 205.077 110.022 204.484 110.278 203.976C110.536 203.467 110.9 203.072 111.369 202.791C111.837 202.51 112.391 202.369 113.031 202.369C113.67 202.369 114.224 202.51 114.692 202.791C115.161 203.072 115.523 203.467 115.779 203.976C116.038 204.484 116.167 205.077 116.167 205.753C116.167 206.429 116.038 207.02 115.779 207.526C115.523 208.031 115.161 208.425 114.692 208.706C114.224 208.987 113.67 209.128 113.031 209.128ZM113.039 207.892C113.386 207.892 113.675 207.797 113.908 207.607C114.141 207.413 114.315 207.155 114.428 206.831C114.545 206.507 114.603 206.146 114.603 205.749C114.603 205.348 114.545 204.986 114.428 204.662C114.315 204.335 114.141 204.075 113.908 203.882C113.675 203.689 113.386 203.592 113.039 203.592C112.684 203.592 112.388 203.689 112.153 203.882C111.92 204.075 111.745 204.335 111.629 204.662C111.515 204.986 111.458 205.348 111.458 205.749C111.458 206.146 111.515 206.507 111.629 206.831C111.745 207.155 111.92 207.413 112.153 207.607C112.388 207.797 112.684 207.892 113.039 207.892ZM127.991 203.217H126.397C126.352 202.956 126.268 202.724 126.146 202.523C126.024 202.318 125.872 202.145 125.69 202.003C125.508 201.861 125.301 201.754 125.068 201.683C124.838 201.609 124.589 201.572 124.322 201.572C123.848 201.572 123.427 201.692 123.061 201.93C122.694 202.166 122.407 202.513 122.2 202.97C121.993 203.425 121.889 203.98 121.889 204.636C121.889 205.304 121.993 205.866 122.2 206.324C122.41 206.778 122.697 207.122 123.061 207.355C123.427 207.585 123.846 207.7 124.318 207.7C124.579 207.7 124.824 207.666 125.051 207.598C125.281 207.527 125.487 207.423 125.669 207.287C125.853 207.151 126.008 206.983 126.133 206.784C126.261 206.585 126.349 206.358 126.397 206.102L127.991 206.111C127.931 206.526 127.802 206.915 127.603 207.278C127.407 207.642 127.15 207.963 126.832 208.241C126.514 208.517 126.142 208.733 125.716 208.889C125.289 209.043 124.816 209.119 124.297 209.119C123.529 209.119 122.845 208.942 122.243 208.587C121.64 208.232 121.166 207.719 120.819 207.048C120.473 206.378 120.299 205.574 120.299 204.636C120.299 203.696 120.474 202.892 120.824 202.224C121.173 201.554 121.649 201.041 122.251 200.686C122.853 200.331 123.535 200.153 124.297 200.153C124.782 200.153 125.234 200.222 125.652 200.358C126.069 200.494 126.441 200.695 126.768 200.959C127.095 201.22 127.363 201.541 127.574 201.922C127.787 202.3 127.926 202.732 127.991 203.217ZM132.226 209.128C131.587 209.128 131.033 208.987 130.564 208.706C130.095 208.425 129.732 208.031 129.473 207.526C129.217 207.02 129.089 206.429 129.089 205.753C129.089 205.077 129.217 204.484 129.473 203.976C129.732 203.467 130.095 203.072 130.564 202.791C131.033 202.51 131.587 202.369 132.226 202.369C132.865 202.369 133.419 202.51 133.888 202.791C134.357 203.072 134.719 203.467 134.974 203.976C135.233 204.484 135.362 205.077 135.362 205.753C135.362 206.429 135.233 207.02 134.974 207.526C134.719 208.031 134.357 208.425 133.888 208.706C133.419 208.987 132.865 209.128 132.226 209.128ZM132.234 207.892C132.581 207.892 132.871 207.797 133.104 207.607C133.337 207.413 133.51 207.155 133.624 206.831C133.74 206.507 133.798 206.146 133.798 205.749C133.798 205.348 133.74 204.986 133.624 204.662C133.51 204.335 133.337 204.075 133.104 203.882C132.871 203.689 132.581 203.592 132.234 203.592C131.879 203.592 131.584 203.689 131.348 203.882C131.115 204.075 130.94 204.335 130.824 204.662C130.71 204.986 130.653 205.348 130.653 205.749C130.653 206.146 130.71 206.507 130.824 206.831C130.94 207.155 131.115 207.413 131.348 207.607C131.584 207.797 131.879 207.892 132.234 207.892ZM141.845 204.185L140.439 204.338C140.399 204.196 140.329 204.062 140.23 203.938C140.133 203.812 140.002 203.712 139.838 203.635C139.673 203.558 139.471 203.52 139.233 203.52C138.912 203.52 138.642 203.589 138.423 203.729C138.207 203.868 138.1 204.048 138.103 204.27C138.1 204.46 138.17 204.615 138.312 204.734C138.457 204.854 138.696 204.952 139.028 205.028L140.145 205.267C140.764 205.401 141.224 205.612 141.525 205.902C141.829 206.192 141.983 206.571 141.985 207.04C141.983 207.452 141.862 207.815 141.623 208.131C141.387 208.443 141.059 208.687 140.639 208.864C140.218 209.04 139.735 209.128 139.19 209.128C138.389 209.128 137.744 208.96 137.255 208.625C136.767 208.287 136.475 207.817 136.382 207.214L137.886 207.07C137.954 207.365 138.099 207.588 138.321 207.739C138.542 207.889 138.831 207.964 139.186 207.964C139.552 207.964 139.846 207.889 140.068 207.739C140.292 207.588 140.404 207.402 140.404 207.18C140.404 206.993 140.332 206.838 140.187 206.716C140.045 206.594 139.824 206.5 139.522 206.435L138.406 206.2C137.778 206.07 137.314 205.849 137.012 205.54C136.711 205.227 136.562 204.832 136.565 204.355C136.562 203.952 136.672 203.602 136.893 203.307C137.118 203.009 137.429 202.778 137.826 202.616C138.227 202.452 138.689 202.369 139.211 202.369C139.978 202.369 140.582 202.533 141.022 202.859C141.466 203.186 141.74 203.628 141.845 204.185ZM146.526 202.455V203.648H142.763V202.455H146.526ZM143.692 200.886H145.235V207.031C145.235 207.239 145.266 207.398 145.328 207.509C145.394 207.616 145.479 207.69 145.584 207.73C145.689 207.77 145.806 207.79 145.934 207.79C146.03 207.79 146.118 207.783 146.198 207.768C146.28 207.754 146.343 207.741 146.385 207.73L146.645 208.936C146.563 208.964 146.445 208.996 146.292 209.03C146.141 209.064 145.956 209.084 145.738 209.089C145.351 209.101 145.003 209.043 144.694 208.915C144.384 208.784 144.138 208.582 143.956 208.31C143.777 208.037 143.689 207.696 143.692 207.287V200.886ZM149.7 209.132C149.285 209.132 148.911 209.058 148.579 208.911C148.249 208.76 147.988 208.538 147.795 208.246C147.604 207.953 147.509 207.592 147.509 207.163C147.509 206.794 147.577 206.489 147.714 206.247C147.85 206.006 148.036 205.812 148.272 205.668C148.508 205.523 148.773 205.413 149.069 205.339C149.367 205.263 149.675 205.207 149.994 205.173C150.377 205.134 150.688 205.098 150.927 205.067C151.165 205.033 151.339 204.982 151.447 204.913C151.558 204.842 151.613 204.733 151.613 204.585V204.56C151.613 204.239 151.518 203.99 151.327 203.814C151.137 203.638 150.863 203.55 150.505 203.55C150.127 203.55 149.827 203.632 149.606 203.797C149.387 203.962 149.239 204.156 149.163 204.381L147.722 204.176C147.836 203.778 148.023 203.446 148.285 203.179C148.546 202.909 148.866 202.707 149.244 202.574C149.621 202.438 150.039 202.369 150.496 202.369C150.812 202.369 151.126 202.406 151.438 202.48C151.751 202.554 152.036 202.676 152.295 202.847C152.553 203.014 152.761 203.243 152.917 203.533C153.076 203.822 153.156 204.185 153.156 204.619V209H151.673V208.101H151.621C151.528 208.283 151.396 208.453 151.225 208.612C151.058 208.768 150.846 208.895 150.59 208.991C150.337 209.085 150.04 209.132 149.7 209.132ZM150.1 207.999C150.41 207.999 150.678 207.937 150.906 207.815C151.133 207.69 151.308 207.526 151.43 207.321C151.555 207.116 151.617 206.893 151.617 206.652V205.881C151.569 205.92 151.487 205.957 151.37 205.991C151.256 206.026 151.129 206.055 150.987 206.081C150.844 206.107 150.704 206.129 150.565 206.149C150.425 206.169 150.305 206.186 150.202 206.2C149.972 206.232 149.766 206.283 149.585 206.354C149.403 206.425 149.259 206.524 149.154 206.652C149.049 206.777 148.996 206.939 148.996 207.138C148.996 207.422 149.1 207.636 149.308 207.781C149.515 207.926 149.779 207.999 150.1 207.999Z" fill="#C1C1CD"/>
<path d="M59.5767 92.2898H57.4517C57.3911 91.9413 57.2794 91.6326 57.1165 91.3636C56.9536 91.0909 56.7509 90.8598 56.5085 90.6705C56.2661 90.4811 55.9896 90.339 55.679 90.2443C55.3722 90.1458 55.0407 90.0966 54.6847 90.0966C54.0521 90.0966 53.4915 90.2557 53.0028 90.5739C52.5142 90.8883 52.1316 91.3504 51.8551 91.9602C51.5786 92.5663 51.4403 93.3068 51.4403 94.1818C51.4403 95.072 51.5786 95.822 51.8551 96.4318C52.1354 97.0379 52.518 97.4962 53.0028 97.8068C53.4915 98.1136 54.0502 98.267 54.679 98.267C55.0275 98.267 55.3532 98.2216 55.6562 98.1307C55.9631 98.036 56.2377 97.8977 56.4801 97.7159C56.7263 97.5341 56.9328 97.3106 57.0994 97.0455C57.2699 96.7803 57.3873 96.4773 57.4517 96.1364L59.5767 96.1477C59.4972 96.7008 59.3248 97.2197 59.0597 97.7045C58.7983 98.1894 58.4555 98.6174 58.0312 98.9886C57.607 99.3561 57.1108 99.6439 56.5426 99.8523C55.9744 100.057 55.3438 100.159 54.6506 100.159C53.6278 100.159 52.715 99.9223 51.9119 99.4489C51.1089 98.9754 50.4763 98.2917 50.0142 97.3977C49.5521 96.5038 49.321 95.4318 49.321 94.1818C49.321 92.928 49.554 91.8561 50.0199 90.9659C50.4858 90.072 51.1203 89.3883 51.9233 88.9148C52.7263 88.4413 53.6354 88.2045 54.6506 88.2045C55.2983 88.2045 55.9006 88.2955 56.4574 88.4773C57.0142 88.6591 57.5104 88.9261 57.946 89.2784C58.3816 89.6269 58.7396 90.0549 59.0199 90.5625C59.304 91.0663 59.4896 91.642 59.5767 92.2898ZM63.9276 100.176C63.3745 100.176 62.8764 100.078 62.4332 99.8807C61.9938 99.6799 61.6454 99.3845 61.3878 98.9943C61.134 98.6042 61.0071 98.1231 61.0071 97.5511C61.0071 97.0587 61.098 96.6515 61.2798 96.3295C61.4616 96.0076 61.7098 95.75 62.0241 95.5568C62.3385 95.3636 62.6927 95.2178 63.0866 95.1193C63.4844 95.017 63.8954 94.9432 64.3196 94.8977C64.831 94.8447 65.2457 94.7973 65.5639 94.7557C65.8821 94.7102 66.1132 94.642 66.2571 94.5511C66.4048 94.4564 66.4787 94.3106 66.4787 94.1136V94.0795C66.4787 93.6515 66.3518 93.3201 66.098 93.0852C65.8442 92.8504 65.4787 92.733 65.0014 92.733C64.4976 92.733 64.098 92.8428 63.8026 93.0625C63.5109 93.2822 63.3139 93.5417 63.2116 93.8409L61.2912 93.5682C61.4427 93.0379 61.6927 92.5947 62.0412 92.2386C62.3897 91.8788 62.8158 91.6098 63.3196 91.4318C63.8234 91.25 64.3802 91.1591 64.9901 91.1591C65.4105 91.1591 65.8291 91.2083 66.2457 91.3068C66.6624 91.4053 67.0431 91.5682 67.3878 91.7955C67.7325 92.0189 68.009 92.3239 68.2173 92.7102C68.4295 93.0966 68.5355 93.5795 68.5355 94.1591V100H66.5582V98.8011H66.4901C66.3651 99.0436 66.1889 99.2708 65.9616 99.483C65.7382 99.6913 65.456 99.8598 65.1151 99.9886C64.7779 100.114 64.3821 100.176 63.9276 100.176ZM64.4616 98.6648C64.8745 98.6648 65.2325 98.5833 65.5355 98.4205C65.8385 98.2538 66.0715 98.0341 66.2344 97.7614C66.401 97.4886 66.4844 97.1913 66.4844 96.8693V95.8409C66.42 95.8939 66.3101 95.9432 66.1548 95.9886C66.0033 96.0341 65.8329 96.0739 65.6435 96.108C65.4541 96.142 65.2666 96.1723 65.081 96.1989C64.8954 96.2254 64.7344 96.2481 64.598 96.267C64.2912 96.3087 64.0166 96.3769 63.7741 96.4716C63.5317 96.5663 63.3404 96.6989 63.2003 96.8693C63.0601 97.036 62.9901 97.2519 62.9901 97.517C62.9901 97.8958 63.1283 98.1818 63.4048 98.375C63.6813 98.5682 64.0336 98.6648 64.4616 98.6648ZM70.6037 100V91.2727H72.598V92.7273H72.6889C72.848 92.2235 73.1207 91.8352 73.5071 91.5625C73.8973 91.286 74.3423 91.1477 74.8423 91.1477C74.956 91.1477 75.0829 91.1534 75.223 91.1648C75.367 91.1723 75.4863 91.1856 75.581 91.2045V93.0966C75.4938 93.0663 75.3556 93.0398 75.1662 93.017C74.9806 92.9905 74.8007 92.9773 74.6264 92.9773C74.2514 92.9773 73.9143 93.0587 73.6151 93.2216C73.3196 93.3807 73.0866 93.6023 72.9162 93.8864C72.7457 94.1705 72.6605 94.4981 72.6605 94.8693V100H70.6037ZM81.7741 91.2727V92.8636H76.7571V91.2727H81.7741ZM77.9957 89.1818H80.0526V97.375C80.0526 97.6515 80.0942 97.8636 80.1776 98.0114C80.2647 98.1553 80.3783 98.2538 80.5185 98.3068C80.6586 98.3598 80.8139 98.3864 80.9844 98.3864C81.1132 98.3864 81.2306 98.3769 81.3366 98.358C81.4465 98.339 81.5298 98.322 81.5866 98.3068L81.9332 99.9148C81.8234 99.9527 81.6662 99.9943 81.4616 100.04C81.2609 100.085 81.0147 100.112 80.723 100.119C80.2079 100.134 79.7438 100.057 79.331 99.8864C78.9181 99.7121 78.5904 99.4432 78.348 99.0795C78.1094 98.7159 77.992 98.2614 77.9957 97.7159V89.1818ZM86.0057 100.176C85.4527 100.176 84.9545 100.078 84.5114 99.8807C84.072 99.6799 83.7235 99.3845 83.4659 98.9943C83.2121 98.6042 83.0852 98.1231 83.0852 97.5511C83.0852 97.0587 83.1761 96.6515 83.358 96.3295C83.5398 96.0076 83.7879 95.75 84.1023 95.5568C84.4167 95.3636 84.7708 95.2178 85.1648 95.1193C85.5625 95.017 85.9735 94.9432 86.3977 94.8977C86.9091 94.8447 87.3239 94.7973 87.642 94.7557C87.9602 94.7102 88.1913 94.642 88.3352 94.5511C88.483 94.4564 88.5568 94.3106 88.5568 94.1136V94.0795C88.5568 93.6515 88.4299 93.3201 88.1761 93.0852C87.9223 92.8504 87.5568 92.733 87.0795 92.733C86.5758 92.733 86.1761 92.8428 85.8807 93.0625C85.589 93.2822 85.392 93.5417 85.2898 93.8409L83.3693 93.5682C83.5208 93.0379 83.7708 92.5947 84.1193 92.2386C84.4678 91.8788 84.8939 91.6098 85.3977 91.4318C85.9015 91.25 86.4583 91.1591 87.0682 91.1591C87.4886 91.1591 87.9072 91.2083 88.3239 91.3068C88.7405 91.4053 89.1212 91.5682 89.4659 91.7955C89.8106 92.0189 90.0871 92.3239 90.2955 92.7102C90.5076 93.0966 90.6136 93.5795 90.6136 94.1591V100H88.6364V98.8011H88.5682C88.4432 99.0436 88.267 99.2708 88.0398 99.483C87.8163 99.6913 87.5341 99.8598 87.1932 99.9886C86.8561 100.114 86.4602 100.176 86.0057 100.176ZM86.5398 98.6648C86.9527 98.6648 87.3106 98.5833 87.6136 98.4205C87.9167 98.2538 88.1496 98.0341 88.3125 97.7614C88.4792 97.4886 88.5625 97.1913 88.5625 96.8693V95.8409C88.4981 95.8939 88.3883 95.9432 88.233 95.9886C88.0814 96.0341 87.911 96.0739 87.7216 96.108C87.5322 96.142 87.3447 96.1723 87.1591 96.1989C86.9735 96.2254 86.8125 96.2481 86.6761 96.267C86.3693 96.3087 86.0947 96.3769 85.8523 96.4716C85.6098 96.5663 85.4186 96.6989 85.2784 96.8693C85.1383 97.036 85.0682 97.2519 85.0682 97.517C85.0682 97.8958 85.2064 98.1818 85.483 98.375C85.7595 98.5682 86.1117 98.6648 86.5398 98.6648ZM85.4886 90.2102L84.2443 90.1818C84.2443 89.5076 84.4186 88.9792 84.767 88.5966C85.1155 88.214 85.5455 88.0227 86.0568 88.0227C86.303 88.0227 86.517 88.0644 86.6989 88.1477C86.8807 88.2273 87.0473 88.3201 87.1989 88.4261C87.3542 88.5322 87.5057 88.6269 87.6534 88.7102C87.8011 88.7898 87.964 88.8295 88.142 88.8295C88.358 88.8295 88.5284 88.7481 88.6534 88.5852C88.7822 88.4223 88.8485 88.214 88.8523 87.9602L90.0739 88.0114C90.0701 88.6894 89.8939 89.2159 89.5455 89.5909C89.197 89.9621 88.7689 90.1496 88.2614 90.1534C87.9886 90.1572 87.7595 90.1174 87.5739 90.0341C87.3883 89.9508 87.2254 89.8561 87.0852 89.75C86.9489 89.6439 86.8106 89.5511 86.6705 89.4716C86.5303 89.3883 86.3655 89.3466 86.1761 89.3466C85.9754 89.3466 85.8106 89.4261 85.6818 89.5852C85.553 89.7443 85.4886 89.9527 85.4886 90.2102ZM96.4886 100.17C95.6364 100.17 94.8977 99.983 94.2727 99.608C93.6477 99.233 93.1629 98.7083 92.8182 98.0341C92.4773 97.3598 92.3068 96.572 92.3068 95.6705C92.3068 94.7689 92.4773 93.9792 92.8182 93.3011C93.1629 92.6231 93.6477 92.0966 94.2727 91.7216C94.8977 91.3466 95.6364 91.1591 96.4886 91.1591C97.3409 91.1591 98.0795 91.3466 98.7045 91.7216C99.3295 92.0966 99.8125 92.6231 100.153 93.3011C100.498 93.9792 100.67 94.7689 100.67 95.6705C100.67 96.572 100.498 97.3598 100.153 98.0341C99.8125 98.7083 99.3295 99.233 98.7045 99.608C98.0795 99.983 97.3409 100.17 96.4886 100.17ZM96.5 98.5227C96.9621 98.5227 97.3485 98.3958 97.6591 98.142C97.9697 97.8845 98.2008 97.5398 98.3523 97.108C98.5076 96.6761 98.5852 96.1951 98.5852 95.6648C98.5852 95.1307 98.5076 94.6477 98.3523 94.2159C98.2008 93.7803 97.9697 93.4337 97.6591 93.1761C97.3485 92.9186 96.9621 92.7898 96.5 92.7898C96.0265 92.7898 95.6326 92.9186 95.3182 93.1761C95.0076 93.4337 94.7746 93.7803 94.6193 94.2159C94.4678 94.6477 94.392 95.1307 94.392 95.6648C94.392 96.1951 94.4678 96.6761 94.6193 97.108C94.7746 97.5398 95.0076 97.8845 95.3182 98.142C95.6326 98.3958 96.0265 98.5227 96.5 98.5227ZM109.624 100.153C108.938 100.153 108.324 99.9773 107.783 99.625C107.241 99.2727 106.813 98.7614 106.499 98.0909C106.184 97.4205 106.027 96.6061 106.027 95.6477C106.027 94.678 106.186 93.8598 106.504 93.1932C106.826 92.5227 107.26 92.017 107.805 91.6761C108.351 91.3314 108.959 91.1591 109.629 91.1591C110.141 91.1591 110.561 91.2462 110.891 91.4205C111.22 91.5909 111.482 91.7973 111.675 92.0398C111.868 92.2784 112.018 92.5038 112.124 92.7159H112.209V88.3636H114.271V100H112.249V98.625H112.124C112.018 98.8371 111.864 99.0625 111.663 99.3011C111.463 99.536 111.197 99.7367 110.868 99.9034C110.538 100.07 110.124 100.153 109.624 100.153ZM110.197 98.4659C110.633 98.4659 111.004 98.3485 111.311 98.1136C111.618 97.875 111.851 97.5436 112.01 97.1193C112.169 96.6951 112.249 96.2008 112.249 95.6364C112.249 95.072 112.169 94.5814 112.01 94.1648C111.855 93.7481 111.624 93.4242 111.317 93.1932C111.014 92.9621 110.641 92.8466 110.197 92.8466C109.739 92.8466 109.357 92.9659 109.05 93.2045C108.743 93.4432 108.512 93.7727 108.357 94.1932C108.201 94.6136 108.124 95.0947 108.124 95.6364C108.124 96.1818 108.201 96.6686 108.357 97.0966C108.516 97.5208 108.749 97.8561 109.055 98.1023C109.366 98.3447 109.747 98.4659 110.197 98.4659ZM120.327 100.17C119.452 100.17 118.696 99.9886 118.06 99.625C117.427 99.2576 116.94 98.7386 116.599 98.0682C116.259 97.3939 116.088 96.6004 116.088 95.6875C116.088 94.7898 116.259 94.0019 116.599 93.3239C116.944 92.642 117.425 92.1117 118.043 91.733C118.66 91.3504 119.385 91.1591 120.219 91.1591C120.757 91.1591 121.264 91.2462 121.741 91.4205C122.223 91.5909 122.647 91.8561 123.014 92.2159C123.385 92.5758 123.677 93.0341 123.889 93.5909C124.101 94.1439 124.207 94.803 124.207 95.5682V96.1989H117.054V94.8125H122.236C122.232 94.4186 122.147 94.0682 121.98 93.7614C121.813 93.4508 121.58 93.2064 121.281 93.0284C120.986 92.8504 120.641 92.7614 120.247 92.7614C119.827 92.7614 119.457 92.8636 119.139 93.0682C118.821 93.2689 118.573 93.5341 118.395 93.8636C118.221 94.1894 118.132 94.5473 118.128 94.9375V96.1477C118.128 96.6553 118.221 97.0909 118.406 97.4545C118.592 97.8144 118.851 98.0909 119.185 98.2841C119.518 98.4735 119.908 98.5682 120.355 98.5682C120.654 98.5682 120.925 98.5265 121.168 98.4432C121.41 98.3561 121.62 98.2292 121.798 98.0625C121.976 97.8958 122.111 97.6894 122.202 97.4432L124.122 97.6591C124.001 98.1667 123.77 98.6098 123.429 98.9886C123.092 99.3636 122.66 99.6553 122.134 99.8636C121.607 100.068 121.005 100.17 120.327 100.17ZM133.723 100.17C132.852 100.17 132.104 99.9792 131.479 99.5966C130.857 99.214 130.378 98.6856 130.041 98.0114C129.708 97.3333 129.541 96.553 129.541 95.6705C129.541 94.7841 129.712 94.0019 130.053 93.3239C130.393 92.642 130.875 92.1117 131.496 91.733C132.121 91.3504 132.859 91.1591 133.712 91.1591C134.42 91.1591 135.047 91.2898 135.592 91.5511C136.142 91.8087 136.579 92.1742 136.905 92.6477C137.231 93.1174 137.416 93.6667 137.462 94.2955H135.496C135.416 93.875 135.227 93.5246 134.928 93.2443C134.632 92.9602 134.236 92.8182 133.74 92.8182C133.32 92.8182 132.95 92.9318 132.632 93.1591C132.314 93.3826 132.066 93.7045 131.888 94.125C131.714 94.5455 131.626 95.0492 131.626 95.6364C131.626 96.2311 131.714 96.7424 131.888 97.1705C132.062 97.5947 132.306 97.9223 132.621 98.1534C132.939 98.3807 133.312 98.4943 133.74 98.4943C134.043 98.4943 134.314 98.4375 134.553 98.3239C134.795 98.2064 134.998 98.0379 135.161 97.8182C135.323 97.5985 135.435 97.3314 135.496 97.017H137.462C137.412 97.6345 137.231 98.1818 136.916 98.6591C136.602 99.1326 136.174 99.5038 135.632 99.7727C135.09 100.038 134.454 100.17 133.723 100.17ZM139.151 100V91.2727H141.145V92.7273H141.236C141.395 92.2235 141.668 91.8352 142.054 91.5625C142.444 91.286 142.889 91.1477 143.389 91.1477C143.503 91.1477 143.63 91.1534 143.77 91.1648C143.914 91.1723 144.033 91.1856 144.128 91.2045V93.0966C144.041 93.0663 143.902 93.0398 143.713 93.017C143.527 92.9905 143.348 92.9773 143.173 92.9773C142.798 92.9773 142.461 93.0587 142.162 93.2216C141.866 93.3807 141.634 93.6023 141.463 93.8864C141.293 94.1705 141.207 94.4981 141.207 94.8693V100H139.151ZM148.999 100.17C148.124 100.17 147.368 99.9886 146.732 99.625C146.099 99.2576 145.612 98.7386 145.271 98.0682C144.93 97.3939 144.76 96.6004 144.76 95.6875C144.76 94.7898 144.93 94.0019 145.271 93.3239C145.616 92.642 146.097 92.1117 146.714 91.733C147.332 91.3504 148.057 91.1591 148.891 91.1591C149.429 91.1591 149.936 91.2462 150.413 91.4205C150.894 91.5909 151.319 91.8561 151.686 92.2159C152.057 92.5758 152.349 93.0341 152.561 93.5909C152.773 94.1439 152.879 94.803 152.879 95.5682V96.1989H145.726V94.8125H150.908C150.904 94.4186 150.819 94.0682 150.652 93.7614C150.485 93.4508 150.252 93.2064 149.953 93.0284C149.658 92.8504 149.313 92.7614 148.919 92.7614C148.499 92.7614 148.129 92.8636 147.811 93.0682C147.493 93.2689 147.245 93.5341 147.067 93.8636C146.893 94.1894 146.804 94.5473 146.8 94.9375V96.1477C146.8 96.6553 146.893 97.0909 147.078 97.4545C147.264 97.8144 147.523 98.0909 147.857 98.2841C148.19 98.4735 148.58 98.5682 149.027 98.5682C149.326 98.5682 149.597 98.5265 149.839 98.4432C150.082 98.3561 150.292 98.2292 150.47 98.0625C150.648 97.8958 150.783 97.6894 150.874 97.4432L152.794 97.6591C152.673 98.1667 152.442 98.6098 152.101 98.9886C151.764 99.3636 151.332 99.6553 150.805 99.8636C150.279 100.068 149.677 100.17 148.999 100.17ZM148.044 90.125L149.317 87.5284H151.328L149.584 90.125H148.044ZM157.858 100.153C157.172 100.153 156.559 99.9773 156.017 99.625C155.475 99.2727 155.047 98.7614 154.733 98.0909C154.419 97.4205 154.261 96.6061 154.261 95.6477C154.261 94.678 154.42 93.8598 154.739 93.1932C155.061 92.5227 155.494 92.017 156.04 91.6761C156.585 91.3314 157.193 91.1591 157.864 91.1591C158.375 91.1591 158.795 91.2462 159.125 91.4205C159.455 91.5909 159.716 91.7973 159.909 92.0398C160.102 92.2784 160.252 92.5038 160.358 92.7159H160.443V88.3636H162.506V100H160.483V98.625H160.358C160.252 98.8371 160.098 99.0625 159.898 99.3011C159.697 99.536 159.432 99.7367 159.102 99.9034C158.773 100.07 158.358 100.153 157.858 100.153ZM158.432 98.4659C158.867 98.4659 159.239 98.3485 159.545 98.1136C159.852 97.875 160.085 97.5436 160.244 97.1193C160.403 96.6951 160.483 96.2008 160.483 95.6364C160.483 95.072 160.403 94.5814 160.244 94.1648C160.089 93.7481 159.858 93.4242 159.551 93.1932C159.248 92.9621 158.875 92.8466 158.432 92.8466C157.973 92.8466 157.591 92.9659 157.284 93.2045C156.977 93.4432 156.746 93.7727 156.591 94.1932C156.436 94.6136 156.358 95.0947 156.358 95.6364C156.358 96.1818 156.436 96.6686 156.591 97.0966C156.75 97.5208 156.983 97.8561 157.29 98.1023C157.6 98.3447 157.981 98.4659 158.432 98.4659ZM164.697 100V91.2727H166.754V100H164.697ZM165.732 90.0341C165.406 90.0341 165.125 89.9261 164.891 89.7102C164.656 89.4905 164.538 89.2273 164.538 88.9205C164.538 88.6098 164.656 88.3466 164.891 88.1307C165.125 87.911 165.406 87.8011 165.732 87.8011C166.061 87.8011 166.341 87.911 166.572 88.1307C166.807 88.3466 166.925 88.6098 166.925 88.9205C166.925 89.2273 166.807 89.4905 166.572 89.7102C166.341 89.9261 166.061 90.0341 165.732 90.0341ZM173.227 91.2727V92.8636H168.21V91.2727H173.227ZM169.449 89.1818H171.506V97.375C171.506 97.6515 171.547 97.8636 171.631 98.0114C171.718 98.1553 171.831 98.2538 171.972 98.3068C172.112 98.3598 172.267 98.3864 172.438 98.3864C172.566 98.3864 172.684 98.3769 172.79 98.358C172.9 98.339 172.983 98.322 173.04 98.3068L173.386 99.9148C173.277 99.9527 173.119 99.9943 172.915 100.04C172.714 100.085 172.468 100.112 172.176 100.119C171.661 100.134 171.197 100.057 170.784 99.8864C170.371 99.7121 170.044 99.4432 169.801 99.0795C169.563 98.7159 169.445 98.2614 169.449 97.7159V89.1818ZM178.661 100.17C177.808 100.17 177.07 99.983 176.445 99.608C175.82 99.233 175.335 98.7083 174.99 98.0341C174.649 97.3598 174.479 96.572 174.479 95.6705C174.479 94.7689 174.649 93.9792 174.99 93.3011C175.335 92.6231 175.82 92.0966 176.445 91.7216C177.07 91.3466 177.808 91.1591 178.661 91.1591C179.513 91.1591 180.251 91.3466 180.876 91.7216C181.501 92.0966 181.984 92.6231 182.325 93.3011C182.67 93.9792 182.842 94.7689 182.842 95.6705C182.842 96.572 182.67 97.3598 182.325 98.0341C181.984 98.7083 181.501 99.233 180.876 99.608C180.251 99.983 179.513 100.17 178.661 100.17ZM178.672 98.5227C179.134 98.5227 179.52 98.3958 179.831 98.142C180.142 97.8845 180.373 97.5398 180.524 97.108C180.679 96.6761 180.757 96.1951 180.757 95.6648C180.757 95.1307 180.679 94.6477 180.524 94.2159C180.373 93.7803 180.142 93.4337 179.831 93.1761C179.52 92.9186 179.134 92.7898 178.672 92.7898C178.198 92.7898 177.804 92.9186 177.49 93.1761C177.179 93.4337 176.946 93.7803 176.791 94.2159C176.64 94.6477 176.564 95.1307 176.564 95.6648C176.564 96.1951 176.64 96.6761 176.791 97.108C176.946 97.5398 177.179 97.8845 177.49 98.142C177.804 98.3958 178.198 98.5227 178.672 98.5227Z" fill="white"/>
<g clip-path="url(#clip1_17_185)">
<path fill-rule="evenodd" clip-rule="evenodd" d="M108.219 62.3215H123.207V35.6294H108.219V62.3215Z" fill="#FF5F00"/>
<path fill-rule="evenodd" clip-rule="evenodd" d="M109.171 48.9755C109.171 43.5603 111.73 38.7374 115.714 35.6295C112.8 33.3562 109.124 32 105.128 32C95.6683 32 88.0001 39.6003 88.0001 48.9755C88.0001 58.3507 95.6683 65.951 105.128 65.951C109.124 65.951 112.8 64.5949 115.714 62.3216C111.73 59.2132 109.171 54.3907 109.171 48.9755Z" fill="#EB001B"/>
<path fill-rule="evenodd" clip-rule="evenodd" d="M142.892 59.4947V58.8359H142.719L142.519 59.2891L142.319 58.8359H142.146V59.4947H142.268V58.9977L142.456 59.4263H142.583L142.77 58.9967V59.4947H142.892ZM141.793 59.4947V58.9481H142.015V58.8369H141.449V58.9481H141.671V59.4947H141.793ZM143.427 48.9755C143.427 58.3507 135.759 65.951 126.299 65.951C122.304 65.951 118.627 64.5949 115.714 62.3216C119.698 59.2136 122.256 54.3907 122.256 48.9755C122.256 43.5608 119.698 38.7379 115.714 35.6295C118.627 33.3562 122.304 32 126.299 32C135.759 32 143.427 39.6003 143.427 48.9755Z" fill="#F79E1B"/>
</g>
</g>
<rect x="0.5" y="0.5" width="231" height="348" rx="15.5" stroke="url(#paint5_linear_17_185)" stroke-opacity="0.15"/>
</g>
<defs>
<filter id="filter0_b_17_185" x="-4.98181" y="-7.41064" width="293.134" height="392.713" filterUnits="userSpaceOnUse" color-interpolation-filters="sRGB">
<feFlood flood-opacity="0" result="BackgroundImageFix"/>
<feGaussianBlur in="BackgroundImageFix" stdDeviation="5"/>
<feComposite in2="SourceAlpha" operator="in" result="effect1_backgroundBlur_17_185"/>
<feBlend mode="normal" in="SourceGraphic" in2="effect1_backgroundBlur_17_185" result="shape"/>
</filter>
<filter id="filter1_b_17_185" x="-4.84607" y="-8.50098" width="272.782" height="381.335" filterUnits="userSpaceOnUse" color-interpolation-filters="sRGB">
<feFlood flood-opacity="0" result="BackgroundImageFix"/>
<feGaussianBlur in="BackgroundImageFix" stdDeviation="5"/>
<feComposite in2="SourceAlpha" operator="in" result="effect1_backgroundBlur_17_185"/>
<feBlend mode="normal" in="SourceGraphic" in2="effect1_backgroundBlur_17_185" result="shape"/>
</filter>
<filter id="filter2_b_17_185" x="-10" y="-10" width="252" height="369" filterUnits="userSpaceOnUse" color-interpolation-filters="sRGB">
<feFlood flood-opacity="0" result="BackgroundImageFix"/>
<feGaussianBlur in="BackgroundImageFix" stdDeviation="5"/>
<feComposite in2="SourceAlpha" operator="in" result="effect1_backgroundBlur_17_185"/>
<feBlend mode="normal" in="SourceGraphic" in2="effect1_backgroundBlur_17_185" result="shape"/>
</filter>
<linearGradient id="paint0_linear_17_185" x1="167" y1="0" x2="167" y2="349" gradientUnits="userSpaceOnUse">
<stop stop-color="#1C1C23" stop-opacity="0"/>
<stop offset="1" stop-color="#1C1C23"/>
</linearGradient>
<linearGradient id="paint1_linear_17_185" x1="51" y1="0" x2="255.111" y2="62.8492" gradientUnits="userSpaceOnUse">
<stop stop-color="#CFCFFC"/>
<stop offset="1" stop-color="#CFCFFC" stop-opacity="0"/>
</linearGradient>
<linearGradient id="paint2_linear_17_185" x1="144" y1="0" x2="144" y2="349" gradientUnits="userSpaceOnUse">
<stop stop-color="#1C1C23" stop-opacity="0"/>
<stop offset="1" stop-color="#1C1C23"/>
</linearGradient>
<linearGradient id="paint3_linear_17_185" x1="28" y1="0" x2="232.111" y2="62.8492" gradientUnits="userSpaceOnUse">
<stop stop-color="#CFCFFC"/>
<stop offset="1" stop-color="#CFCFFC" stop-opacity="0"/>
</linearGradient>
<linearGradient id="paint4_linear_17_185" x1="21" y1="164.5" x2="467.5" y2="495" gradientUnits="userSpaceOnUse">
<stop stop-color="white"/>
<stop offset="0.342546" stop-color="white" stop-opacity="0"/>
</linearGradient>
<linearGradient id="paint5_linear_17_185" x1="0" y1="0" x2="204.111" y2="62.8492" gradientUnits="userSpaceOnUse">
<stop stop-color="#CFCFFC"/>
<stop offset="1" stop-color="#CFCFFC" stop-opacity="0"/>
</linearGradient>
<clipPath id="clip0_17_185">
<rect width="232" height="349" rx="16" fill="white"/>
</clipPath>
<clipPath id="clip1_17_185">
<rect width="56" height="34" fill="white" transform="translate(88 32)"/>
</clipPath>
</defs>
</svg>
