<svg width="281" height="378" viewBox="0 0 281 378" fill="none" xmlns="http://www.w3.org/2000/svg">
<path d="M264.898 30.0614L66.8443 2.22677C58.0937 0.996959 50.003 7.09373 48.7732 15.8443L4.65536 329.759C3.42555 338.51 9.52232 346.601 18.2729 347.83L216.326 375.665C225.077 376.895 233.168 370.798 234.398 362.047L278.515 48.1324C279.745 39.3819 273.648 31.2912 264.898 30.0614Z" fill="#4E4E61" fill-opacity="0.35"/>
<path d="M264.898 30.0614L66.8443 2.22677C58.0937 0.996959 50.003 7.09373 48.7732 15.8443L4.65536 329.759C3.42555 338.51 9.52232 346.601 18.2729 347.83L216.326 375.665C225.077 376.895 233.168 370.798 234.398 362.047L278.515 48.1324C279.745 39.3819 273.648 31.2912 264.898 30.0614Z" fill="url(#paint0_linear_1_2)" fill-opacity="0.75"/>
<path d="M264.828 30.5565L66.7747 2.72191C58.2976 1.53053 50.4597 7.43678 49.2683 15.9139L5.15045 329.829C3.95907 338.306 9.86532 346.144 18.3424 347.335L216.396 375.17C224.873 376.361 232.711 370.455 233.902 361.978L278.02 48.0629C279.212 39.5858 273.305 31.7479 264.828 30.5565Z" stroke="url(#paint1_linear_1_2)" stroke-opacity="0.15"/>
<path d="M243.474 15.0674L43.961 1.1161C35.146 0.499697 27.5003 7.14599 26.8839 15.961L4.7711 332.189C4.15469 341.004 10.801 348.65 19.616 349.266L219.129 363.217C227.944 363.834 235.59 357.187 236.206 348.372L258.319 32.1445C258.935 23.3295 252.289 15.6838 243.474 15.0674Z" fill="#4E4E61" fill-opacity="0.75"/>
<path d="M243.474 15.0674L43.961 1.1161C35.146 0.499697 27.5003 7.14599 26.8839 15.961L4.7711 332.189C4.15469 341.004 10.801 348.65 19.616 349.266L219.129 363.217C227.944 363.834 235.59 357.187 236.206 348.372L258.319 32.1445C258.935 23.3295 252.289 15.6838 243.474 15.0674Z" fill="url(#paint2_linear_1_2)" fill-opacity="0.75"/>
<path d="M243.439 15.5662L43.9262 1.61489C35.3866 1.01774 27.9798 7.45634 27.3827 15.9959L5.26989 332.224C4.67274 340.763 11.1113 348.17 19.6509 348.767L219.164 362.718C227.703 363.316 235.11 356.877 235.707 348.337L257.82 32.1096C258.417 23.5701 251.979 16.1633 243.439 15.5662Z" stroke="url(#paint3_linear_1_2)" stroke-opacity="0.15"/>
<mask id="mask0_1_2" style="mask-type:luminance" maskUnits="userSpaceOnUse" x="0" y="0" width="232" height="349">
<path d="M216 0H16C7.16344 0 0 7.16344 0 16V333C0 341.837 7.16344 349 16 349H216C224.837 349 232 341.837 232 333V16C232 7.16344 224.837 0 216 0Z" fill="white"/>
</mask>
<g mask="url(#mask0_1_2)">
<path d="M216 0H16C7.16344 0 0 7.16344 0 16V333C0 341.837 7.16344 349 16 349H216C224.837 349 232 341.837 232 333V16C232 7.16344 224.837 0 216 0Z" fill="#252530"/>
<path opacity="0.5" d="M226 188C297.797 188 356 129.797 356 58C356 -13.797 297.797 -72 226 -72C154.203 -72 96 -13.797 96 58C96 129.797 154.203 188 226 188Z" fill="white" fill-opacity="0.1"/>
<path opacity="0.5" d="M134.5 504C239.158 504 324 419.158 324 314.5C324 209.842 239.158 125 134.5 125C29.842 125 -55 209.842 -55 314.5C-55 419.158 29.842 504 134.5 504Z" fill="url(#paint4_linear_1_2)" fill-opacity="0.1"/>
<path d="M120.75 290H131C133.209 290 135 291.791 135 294V299.389V306.611V312C135 314.209 133.209 316 131 316H120.75H111.25H101C98.7909 316 97 314.209 97 312V306.611V299.389V294C97 291.791 98.7909 290 101 290H111.25H120.75Z" fill="#F6C859"/>
<path d="M111.25 290H120.75M111.25 290H101C98.7909 290 97 291.791 97 294V299.389M111.25 290V294.694M120.75 290H131C133.209 290 135 291.791 135 294V299.389M120.75 290V294.694H111.25M97 299.389V306.611M97 299.389H111.25M111.25 294.694V299.389M135 299.389V306.611M135 299.389H120.75V306.611M111.25 316H101C98.7909 316 97 314.209 97 312V306.611M111.25 316H120.75M111.25 316V311.306M97 306.611H111.25M120.75 316H131C133.209 316 135 314.209 135 312V306.611M120.75 316V311.306M111.25 311.306V306.611M111.25 311.306H120.75M135 306.611H120.75M120.75 311.306V306.611M111.25 306.611V299.389" stroke="#7D662D"/>
<path d="M59.5767 92.2898H57.4517C57.3911 91.9413 57.2794 91.6326 57.1165 91.3636C56.9536 91.0909 56.7509 90.8598 56.5085 90.6705C56.2661 90.4811 55.9896 90.339 55.679 90.2443C55.3722 90.1458 55.0407 90.0966 54.6847 90.0966C54.0521 90.0966 53.4915 90.2557 53.0028 90.5739C52.5142 90.8883 52.1316 91.3504 51.8551 91.9602C51.5786 92.5663 51.4403 93.3068 51.4403 94.1818C51.4403 95.072 51.5786 95.822 51.8551 96.4318C52.1354 97.0379 52.518 97.4962 53.0028 97.8068C53.4915 98.1136 54.0502 98.267 54.679 98.267C55.0275 98.267 55.3532 98.2216 55.6562 98.1307C55.9631 98.036 56.2377 97.8977 56.4801 97.7159C56.7263 97.5341 56.9328 97.3106 57.0994 97.0455C57.2699 96.7803 57.3873 96.4773 57.4517 96.1364L59.5767 96.1477C59.4972 96.7008 59.3248 97.2197 59.0597 97.7045C58.7983 98.1894 58.4555 98.6174 58.0312 98.9886C57.607 99.3561 57.1108 99.6439 56.5426 99.8523C55.9744 100.057 55.3438 100.159 54.6506 100.159C53.6278 100.159 52.715 99.9223 51.9119 99.4489C51.1089 98.9754 50.4763 98.2917 50.0142 97.3977C49.5521 96.5038 49.321 95.4318 49.321 94.1818C49.321 92.928 49.554 91.8561 50.0199 90.9659C50.4858 90.072 51.1203 89.3883 51.9233 88.9148C52.7263 88.4413 53.6354 88.2045 54.6506 88.2045C55.2983 88.2045 55.9006 88.2955 56.4574 88.4773C57.0142 88.6591 57.5104 88.9261 57.946 89.2784C58.3816 89.6269 58.7396 90.0549 59.0199 90.5625C59.304 91.0663 59.4896 91.642 59.5767 92.2898ZM63.9276 100.176C63.3745 100.176 62.8764 100.078 62.4332 99.8807C61.9938 99.6799 61.6454 99.3845 61.3878 98.9943C61.134 98.6042 61.0071 98.1231 61.0071 97.5511C61.0071 97.0587 61.098 96.6515 61.2798 96.3295C61.4616 96.0076 61.7098 95.75 62.0241 95.5568C62.3385 95.3636 62.6927 95.2178 63.0866 95.1193C63.4844 95.017 63.8954 94.9432 64.3196 94.8977C64.831 94.8447 65.2457 94.7973 65.5639 94.7557C65.8821 94.7102 66.1132 94.642 66.2571 94.5511C66.4048 94.4564 66.4787 94.3106 66.4787 94.1136V94.0795C66.4787 93.6515 66.3518 93.3201 66.098 93.0852C65.8442 92.8504 65.4787 92.733 65.0014 92.733C64.4976 92.733 64.098 92.8428 63.8026 93.0625C63.5109 93.2822 63.3139 93.5417 63.2116 93.8409L61.2912 93.5682C61.4427 93.0379 61.6927 92.5947 62.0412 92.2386C62.3897 91.8788 62.8158 91.6098 63.3196 91.4318C63.8234 91.25 64.3802 91.1591 64.9901 91.1591C65.4105 91.1591 65.8291 91.2083 66.2457 91.3068C66.6624 91.4053 67.0431 91.5682 67.3878 91.7955C67.7325 92.0189 68.009 92.3239 68.2173 92.7102C68.4295 93.0966 68.5355 93.5795 68.5355 94.1591V100H66.5582V98.8011H66.4901C66.3651 99.0436 66.1889 99.2708 65.9616 99.483C65.7382 99.6913 65.456 99.8598 65.1151 99.9886C64.7779 100.114 64.3821 100.176 63.9276 100.176ZM64.4616 98.6648C64.8745 98.6648 65.2325 98.5833 65.5355 98.4205C65.8385 98.2538 66.0715 98.0341 66.2344 97.7614C66.401 97.4886 66.4844 97.1913 66.4844 96.8693V95.8409C66.42 95.8939 66.3101 95.9432 66.1548 95.9886C66.0033 96.0341 65.8329 96.0739 65.6435 96.108C65.4541 96.142 65.2666 96.1723 65.081 96.1989C64.8954 96.2254 64.7344 96.2481 64.598 96.267C64.2912 96.3087 64.0166 96.3769 63.7741 96.4716C63.5317 96.5663 63.3404 96.6989 63.2003 96.8693C63.0601 97.036 62.9901 97.2519 62.9901 97.517C62.9901 97.8958 63.1283 98.1818 63.4048 98.375C63.6813 98.5682 64.0336 98.6648 64.4616 98.6648ZM70.6037 100V91.2727H72.598V92.7273H72.6889C72.848 92.2235 73.1207 91.8352 73.5071 91.5625C73.8973 91.286 74.3423 91.1477 74.8423 91.1477C74.956 91.1477 75.0829 91.1534 75.223 91.1648C75.367 91.1723 75.4863 91.1856 75.581 91.2045V93.0966C75.4938 93.0663 75.3556 93.0398 75.1662 93.017C74.9806 92.9905 74.8007 92.9773 74.6264 92.9773C74.2514 92.9773 73.9143 93.0587 73.6151 93.2216C73.3196 93.3807 73.0866 93.6023 72.9162 93.8864C72.7457 94.1705 72.6605 94.4981 72.6605 94.8693V100H70.6037ZM81.7741 91.2727V92.8636H76.7571V91.2727H81.7741ZM77.9957 89.1818H80.0526V97.375C80.0526 97.6515 80.0942 97.8636 80.1776 98.0114C80.2647 98.1553 80.3783 98.2538 80.5185 98.3068C80.6586 98.3598 80.8139 98.3864 80.9844 98.3864C81.1132 98.3864 81.2306 98.3769 81.3366 98.358C81.4465 98.339 81.5298 98.322 81.5866 98.3068L81.9332 99.9148C81.8234 99.9527 81.6662 99.9943 81.4616 100.04C81.2609 100.085 81.0147 100.112 80.723 100.119C80.2079 100.134 79.7438 100.057 79.331 99.8864C78.9181 99.7121 78.5904 99.4432 78.348 99.0795C78.1094 98.7159 77.992 98.2614 77.9957 97.7159V89.1818ZM86.0057 100.176C85.4527 100.176 84.9545 100.078 84.5114 99.8807C84.072 99.6799 83.7235 99.3845 83.4659 98.9943C83.2121 98.6042 83.0852 98.1231 83.0852 97.5511C83.0852 97.0587 83.1761 96.6515 83.358 96.3295C83.5398 96.0076 83.7879 95.75 84.1023 95.5568C84.4167 95.3636 84.7708 95.2178 85.1648 95.1193C85.5625 95.017 85.9735 94.9432 86.3977 94.8977C86.9091 94.8447 87.3239 94.7973 87.642 94.7557C87.9602 94.7102 88.1913 94.642 88.3352 94.5511C88.483 94.4564 88.5568 94.3106 88.5568 94.1136V94.0795C88.5568 93.6515 88.4299 93.3201 88.1761 93.0852C87.9223 92.8504 87.5568 92.733 87.0795 92.733C86.5758 92.733 86.1761 92.8428 85.8807 93.0625C85.589 93.2822 85.392 93.5417 85.2898 93.8409L83.3693 93.5682C83.5208 93.0379 83.7708 92.5947 84.1193 92.2386C84.4678 91.8788 84.8939 91.6098 85.3977 91.4318C85.9015 91.25 86.4583 91.1591 87.0682 91.1591C87.4886 91.1591 87.9072 91.2083 88.3239 91.3068C88.7405 91.4053 89.1212 91.5682 89.4659 91.7955C89.8106 92.0189 90.0871 92.3239 90.2955 92.7102C90.5076 93.0966 90.6136 93.5795 90.6136 94.1591V100H88.6364V98.8011H88.5682C88.4432 99.0436 88.267 99.2708 88.0398 99.483C87.8163 99.6913 87.5341 99.8598 87.1932 99.9886C86.8561 100.114 86.4602 100.176 86.0057 100.176ZM86.5398 98.6648C86.9527 98.6648 87.3106 98.5833 87.6136 98.4205C87.9167 98.2538 88.1496 98.0341 88.3125 97.7614C88.4792 97.4886 88.5625 97.1913 88.5625 96.8693V95.8409C88.4981 95.8939 88.3883 95.9432 88.233 95.9886C88.0814 96.0341 87.911 96.0739 87.7216 96.108C87.5322 96.142 87.3447 96.1723 87.1591 96.1989C86.9735 96.2254 86.8125 96.2481 86.6761 96.267C86.3693 96.3087 86.0947 96.3769 85.8523 96.4716C85.6098 96.5663 85.4186 96.6989 85.2784 96.8693C85.1383 97.036 85.0682 97.2519 85.0682 97.517C85.0682 97.8958 85.2064 98.1818 85.483 98.375C85.7595 98.5682 86.1117 98.6648 86.5398 98.6648ZM85.4886 90.2102L84.2443 90.1818C84.2443 89.5076 84.4186 88.9792 84.767 88.5966C85.1155 88.214 85.5455 88.0227 86.0568 88.0227C86.303 88.0227 86.517 88.0644 86.6989 88.1477C86.8807 88.2273 87.0473 88.3201 87.1989 88.4261C87.3542 88.5322 87.5057 88.6269 87.6534 88.7102C87.8011 88.7898 87.964 88.8295 88.142 88.8295C88.358 88.8295 88.5284 88.7481 88.6534 88.5852C88.7822 88.4223 88.8485 88.214 88.8523 87.9602L90.0739 88.0114C90.0701 88.6894 89.8939 89.2159 89.5455 89.5909C89.197 89.9621 88.7689 90.1496 88.2614 90.1534C87.9886 90.1572 87.7595 90.1174 87.5739 90.0341C87.3883 89.9508 87.2254 89.8561 87.0852 89.75C86.9489 89.6439 86.8106 89.5511 86.6705 89.4716C86.5303 89.3883 86.3655 89.3466 86.1761 89.3466C85.9754 89.3466 85.8106 89.4261 85.6818 89.5852C85.553 89.7443 85.4886 89.9527 85.4886 90.2102ZM96.4886 100.17C95.6364 100.17 94.8977 99.983 94.2727 99.608C93.6477 99.233 93.1629 98.7083 92.8182 98.0341C92.4773 97.3598 92.3068 96.572 92.3068 95.6705C92.3068 94.7689 92.4773 93.9792 92.8182 93.3011C93.1629 92.6231 93.6477 92.0966 94.2727 91.7216C94.8977 91.3466 95.6364 91.1591 96.4886 91.1591C97.3409 91.1591 98.0795 91.3466 98.7045 91.7216C99.3295 92.0966 99.8125 92.6231 100.153 93.3011C100.498 93.9792 100.67 94.7689 100.67 95.6705C100.67 96.572 100.498 97.3598 100.153 98.0341C99.8125 98.7083 99.3295 99.233 98.7045 99.608C98.0795 99.983 97.3409 100.17 96.4886 100.17ZM96.5 98.5227C96.9621 98.5227 97.3485 98.3958 97.6591 98.142C97.9697 97.8845 98.2008 97.5398 98.3523 97.108C98.5076 96.6761 98.5852 96.1951 98.5852 95.6648C98.5852 95.1307 98.5076 94.6477 98.3523 94.2159C98.2008 93.7803 97.9697 93.4337 97.6591 93.1761C97.3485 92.9186 96.9621 92.7898 96.5 92.7898C96.0265 92.7898 95.6326 92.9186 95.3182 93.1761C95.0076 93.4337 94.7746 93.7803 94.6193 94.2159C94.4678 94.6477 94.392 95.1307 94.392 95.6648C94.392 96.1951 94.4678 96.6761 94.6193 97.108C94.7746 97.5398 95.0076 97.8845 95.3182 98.142C95.6326 98.3958 96.0265 98.5227 96.5 98.5227ZM109.624 100.153C108.938 100.153 108.324 99.9773 107.783 99.625C107.241 99.2727 106.813 98.7614 106.499 98.0909C106.184 97.4205 106.027 96.6061 106.027 95.6477C106.027 94.678 106.186 93.8598 106.504 93.1932C106.826 92.5227 107.26 92.017 107.805 91.6761C108.351 91.3314 108.959 91.1591 109.629 91.1591C110.141 91.1591 110.561 91.2462 110.891 91.4205C111.22 91.5909 111.482 91.7973 111.675 92.0398C111.868 92.2784 112.018 92.5038 112.124 92.7159H112.209V88.3636H114.271V100H112.249V98.625H112.124C112.018 98.8371 111.864 99.0625 111.663 99.3011C111.463 99.536 111.197 99.7367 110.868 99.9034C110.538 100.07 110.124 100.153 109.624 100.153ZM110.197 98.4659C110.633 98.4659 111.004 98.3485 111.311 98.1136C111.618 97.875 111.851 97.5436 112.01 97.1193C112.169 96.6951 112.249 96.2008 112.249 95.6364C112.249 95.072 112.169 94.5814 112.01 94.1648C111.855 93.7481 111.624 93.4242 111.317 93.1932C111.014 92.9621 110.641 92.8466 110.197 92.8466C109.739 92.8466 109.357 92.9659 109.05 93.2045C108.743 93.4432 108.512 93.7727 108.357 94.1932C108.201 94.6136 108.124 95.0947 108.124 95.6364C108.124 96.1818 108.201 96.6686 108.357 97.0966C108.516 97.5208 108.749 97.8561 109.055 98.1023C109.366 98.3447 109.747 98.4659 110.197 98.4659ZM120.327 100.17C119.452 100.17 118.696 99.9886 118.06 99.625C117.427 99.2576 116.94 98.7386 116.599 98.0682C116.259 97.3939 116.088 96.6004 116.088 95.6875C116.088 94.7898 116.259 94.0019 116.599 93.3239C116.944 92.642 117.425 92.1117 118.043 91.733C118.66 91.3504 119.385 91.1591 120.219 91.1591C120.757 91.1591 121.264 91.2462 121.741 91.4205C122.223 91.5909 122.647 91.8561 123.014 92.2159C123.385 92.5758 123.677 93.0341 123.889 93.5909C124.101 94.1439 124.207 94.803 124.207 95.5682V96.1989H117.054V94.8125H122.236C122.232 94.4186 122.147 94.0682 121.98 93.7614C121.813 93.4508 121.58 93.2064 121.281 93.0284C120.986 92.8504 120.641 92.7614 120.247 92.7614C119.827 92.7614 119.457 92.8636 119.139 93.0682C118.821 93.2689 118.573 93.5341 118.395 93.8636C118.221 94.1894 118.132 94.5473 118.128 94.9375V96.1477C118.128 96.6553 118.221 97.0909 118.406 97.4545C118.592 97.8144 118.851 98.0909 119.185 98.2841C119.518 98.4735 119.908 98.5682 120.355 98.5682C120.654 98.5682 120.925 98.5265 121.168 98.4432C121.41 98.3561 121.62 98.2292 121.798 98.0625C121.976 97.8958 122.111 97.6894 122.202 97.4432L124.122 97.6591C124.001 98.1667 123.77 98.6098 123.429 98.9886C123.092 99.3636 122.66 99.6553 122.134 99.8636C121.607 100.068 121.005 100.17 120.327 100.17ZM133.723 100.17C132.852 100.17 132.104 99.9792 131.479 99.5966C130.857 99.214 130.378 98.6856 130.041 98.0114C129.708 97.3333 129.541 96.553 129.541 95.6705C129.541 94.7841 129.712 94.0019 130.053 93.3239C130.393 92.642 130.875 92.1117 131.496 91.733C132.121 91.3504 132.859 91.1591 133.712 91.1591C134.42 91.1591 135.047 91.2898 135.592 91.5511C136.142 91.8087 136.579 92.1742 136.905 92.6477C137.231 93.1174 137.416 93.6667 137.462 94.2955H135.496C135.416 93.875 135.227 93.5246 134.928 93.2443C134.632 92.9602 134.236 92.8182 133.74 92.8182C133.32 92.8182 132.95 92.9318 132.632 93.1591C132.314 93.3826 132.066 93.7045 131.888 94.125C131.714 94.5455 131.626 95.0492 131.626 95.6364C131.626 96.2311 131.714 96.7424 131.888 97.1705C132.062 97.5947 132.306 97.9223 132.621 98.1534C132.939 98.3807 133.312 98.4943 133.74 98.4943C134.043 98.4943 134.314 98.4375 134.553 98.3239C134.795 98.2064 134.998 98.0379 135.161 97.8182C135.323 97.5985 135.435 97.3314 135.496 97.017H137.462C137.412 97.6345 137.231 98.1818 136.916 98.6591C136.602 99.1326 136.174 99.5038 135.632 99.7727C135.09 100.038 134.454 100.17 133.723 100.17ZM139.151 100V91.2727H141.145V92.7273H141.236C141.395 92.2235 141.668 91.8352 142.054 91.5625C142.444 91.286 142.889 91.1477 143.389 91.1477C143.503 91.1477 143.63 91.1534 143.77 91.1648C143.914 91.1723 144.033 91.1856 144.128 91.2045V93.0966C144.041 93.0663 143.902 93.0398 143.713 93.017C143.527 92.9905 143.348 92.9773 143.173 92.9773C142.798 92.9773 142.461 93.0587 142.162 93.2216C141.866 93.3807 141.634 93.6023 141.463 93.8864C141.293 94.1705 141.207 94.4981 141.207 94.8693V100H139.151ZM148.999 100.17C148.124 100.17 147.368 99.9886 146.732 99.625C146.099 99.2576 145.612 98.7386 145.271 98.0682C144.93 97.3939 144.76 96.6004 144.76 95.6875C144.76 94.7898 144.93 94.0019 145.271 93.3239C145.616 92.642 146.097 92.1117 146.714 91.733C147.332 91.3504 148.057 91.1591 148.891 91.1591C149.429 91.1591 149.936 91.2462 150.413 91.4205C150.894 91.5909 151.319 91.8561 151.686 92.2159C152.057 92.5758 152.349 93.0341 152.561 93.5909C152.773 94.1439 152.879 94.803 152.879 95.5682V96.1989H145.726V94.8125H150.908C150.904 94.4186 150.819 94.0682 150.652 93.7614C150.485 93.4508 150.252 93.2064 149.953 93.0284C149.658 92.8504 149.313 92.7614 148.919 92.7614C148.499 92.7614 148.129 92.8636 147.811 93.0682C147.493 93.2689 147.245 93.5341 147.067 93.8636C146.893 94.1894 146.804 94.5473 146.8 94.9375V96.1477C146.8 96.6553 146.893 97.0909 147.078 97.4545C147.264 97.8144 147.523 98.0909 147.857 98.2841C148.19 98.4735 148.58 98.5682 149.027 98.5682C149.326 98.5682 149.597 98.5265 149.839 98.4432C150.082 98.3561 150.292 98.2292 150.47 98.0625C150.648 97.8958 150.783 97.6894 150.874 97.4432L152.794 97.6591C152.673 98.1667 152.442 98.6098 152.101 98.9886C151.764 99.3636 151.332 99.6553 150.805 99.8636C150.279 100.068 149.677 100.17 148.999 100.17ZM148.044 90.125L149.317 87.5284H151.328L149.584 90.125H148.044ZM157.858 100.153C157.172 100.153 156.559 99.9773 156.017 99.625C155.475 99.2727 155.047 98.7614 154.733 98.0909C154.419 97.4205 154.261 96.6061 154.261 95.6477C154.261 94.678 154.42 93.8598 154.739 93.1932C155.061 92.5227 155.494 92.017 156.04 91.6761C156.585 91.3314 157.193 91.1591 157.864 91.1591C158.375 91.1591 158.795 91.2462 159.125 91.4205C159.455 91.5909 159.716 91.7973 159.909 92.0398C160.102 92.2784 160.252 92.5038 160.358 92.7159H160.443V88.3636H162.506V100H160.483V98.625H160.358C160.252 98.8371 160.098 99.0625 159.898 99.3011C159.697 99.536 159.432 99.7367 159.102 99.9034C158.773 100.07 158.358 100.153 157.858 100.153ZM158.432 98.4659C158.867 98.4659 159.239 98.3485 159.545 98.1136C159.852 97.875 160.085 97.5436 160.244 97.1193C160.403 96.6951 160.483 96.2008 160.483 95.6364C160.483 95.072 160.403 94.5814 160.244 94.1648C160.089 93.7481 159.858 93.4242 159.551 93.1932C159.248 92.9621 158.875 92.8466 158.432 92.8466C157.973 92.8466 157.591 92.9659 157.284 93.2045C156.977 93.4432 156.746 93.7727 156.591 94.1932C156.436 94.6136 156.358 95.0947 156.358 95.6364C156.358 96.1818 156.436 96.6686 156.591 97.0966C156.75 97.5208 156.983 97.8561 157.29 98.1023C157.6 98.3447 157.981 98.4659 158.432 98.4659ZM164.697 100V91.2727H166.754V100H164.697ZM165.732 90.0341C165.406 90.0341 165.125 89.9261 164.891 89.7102C164.656 89.4905 164.538 89.2273 164.538 88.9205C164.538 88.6098 164.656 88.3466 164.891 88.1307C165.125 87.911 165.406 87.8011 165.732 87.8011C166.061 87.8011 166.341 87.911 166.572 88.1307C166.807 88.3466 166.925 88.6098 166.925 88.9205C166.925 89.2273 166.807 89.4905 166.572 89.7102C166.341 89.9261 166.061 90.0341 165.732 90.0341ZM173.227 91.2727V92.8636H168.21V91.2727H173.227ZM169.449 89.1818H171.506V97.375C171.506 97.6515 171.547 97.8636 171.631 98.0114C171.718 98.1553 171.831 98.2538 171.972 98.3068C172.112 98.3598 172.267 98.3864 172.438 98.3864C172.566 98.3864 172.684 98.3769 172.79 98.358C172.9 98.339 172.983 98.322 173.04 98.3068L173.386 99.9148C173.277 99.9527 173.119 99.9943 172.915 100.04C172.714 100.085 172.468 100.112 172.176 100.119C171.661 100.134 171.197 100.057 170.784 99.8864C170.371 99.7121 170.044 99.4432 169.801 99.0795C169.563 98.7159 169.445 98.2614 169.449 97.7159V89.1818ZM178.661 100.17C177.808 100.17 177.07 99.983 176.445 99.608C175.82 99.233 175.335 98.7083 174.99 98.0341C174.649 97.3598 174.479 96.572 174.479 95.6705C174.479 94.7689 174.649 93.9792 174.99 93.3011C175.335 92.6231 175.82 92.0966 176.445 91.7216C177.07 91.3466 177.808 91.1591 178.661 91.1591C179.513 91.1591 180.251 91.3466 180.876 91.7216C181.501 92.0966 181.984 92.6231 182.325 93.3011C182.67 93.9792 182.842 94.7689 182.842 95.6705C182.842 96.572 182.67 97.3598 182.325 98.0341C181.984 98.7083 181.501 99.233 180.876 99.608C180.251 99.983 179.513 100.17 178.661 100.17ZM178.672 98.5227C179.134 98.5227 179.52 98.3958 179.831 98.142C180.142 97.8845 180.373 97.5398 180.524 97.108C180.679 96.6761 180.757 96.1951 180.757 95.6648C180.757 95.1307 180.679 94.6477 180.524 94.2159C180.373 93.7803 180.142 93.4337 179.831 93.1761C179.52 92.9186 179.134 92.7898 178.672 92.7898C178.198 92.7898 177.804 92.9186 177.49 93.1761C177.179 93.4337 176.946 93.7803 176.791 94.2159C176.64 94.6477 176.564 95.1307 176.564 95.6648C176.564 96.1951 176.64 96.6761 176.791 97.108C176.946 97.5398 177.179 97.8845 177.49 98.142C177.804 98.3958 178.198 98.5227 178.672 98.5227Z" fill="white"/>
<mask id="mask1_1_2" style="mask-type:luminance" maskUnits="userSpaceOnUse" x="88" y="32" width="56" height="34">
<path d="M144 32H88V66H144V32Z" fill="white"/>
</mask>
<g mask="url(#mask1_1_2)">
<path fill-rule="evenodd" clip-rule="evenodd" d="M108.219 62.3215H123.207V35.6294H108.219V62.3215Z" fill="#FF5F00"/>
<path fill-rule="evenodd" clip-rule="evenodd" d="M109.171 48.9755C109.171 43.5603 111.73 38.7374 115.714 35.6295C112.8 33.3562 109.124 32 105.128 32C95.6683 32 88.0001 39.6003 88.0001 48.9755C88.0001 58.3507 95.6683 65.951 105.128 65.951C109.124 65.951 112.8 64.5949 115.714 62.3216C111.73 59.2132 109.171 54.3907 109.171 48.9755Z" fill="#EB001B"/>
<path fill-rule="evenodd" clip-rule="evenodd" d="M142.892 59.4947V58.8359H142.719L142.519 59.2891L142.319 58.8359H142.146V59.4947H142.268V58.9977L142.456 59.4263H142.583L142.77 58.9967V59.4947H142.892ZM141.793 59.4947V58.9481H142.015V58.8369H141.449V58.9481H141.671V59.4947H141.793ZM143.427 48.9755C143.427 58.3507 135.759 65.951 126.299 65.951C122.304 65.951 118.627 64.5949 115.714 62.3216C119.698 59.2136 122.256 54.3907 122.256 48.9755C122.256 43.5608 119.698 38.7379 115.714 35.6295C118.627 33.3562 122.304 32 126.299 32C135.759 32 143.427 39.6003 143.427 48.9755Z" fill="#F79E1B"/>
</g>
</g>
<path d="M216 0.5H16C7.43959 0.5 0.5 7.43959 0.5 16V333C0.5 341.56 7.43959 348.5 16 348.5H216C224.56 348.5 231.5 341.56 231.5 333V16C231.5 7.43959 224.56 0.5 216 0.5Z" stroke="url(#paint5_linear_1_2)" stroke-opacity="0.15"/>
<defs>
<linearGradient id="paint0_linear_1_2" x1="165.871" y1="16.1441" x2="117.3" y2="361.748" gradientUnits="userSpaceOnUse">
<stop stop-color="#1C1C23" stop-opacity="0"/>
<stop offset="1" stop-color="#1C1C23"/>
</linearGradient>
<linearGradient id="paint1_linear_1_2" x1="51.0827" y1="-0.0537203" x2="244.46" y2="90.5906" gradientUnits="userSpaceOnUse">
<stop stop-color="#CFCFFC"/>
<stop offset="1" stop-color="#CFCFFC" stop-opacity="0"/>
</linearGradient>
<linearGradient id="paint2_linear_1_2" x1="143.717" y1="8.09175" x2="119.372" y2="356.242" gradientUnits="userSpaceOnUse">
<stop stop-color="#1C1C23" stop-opacity="0"/>
<stop offset="1" stop-color="#1C1C23"/>
</linearGradient>
<linearGradient id="paint3_linear_1_2" x1="28.0384" y1="-0.0310609" x2="227.268" y2="76.9031" gradientUnits="userSpaceOnUse">
<stop stop-color="#CFCFFC"/>
<stop offset="1" stop-color="#CFCFFC" stop-opacity="0"/>
</linearGradient>
<linearGradient id="paint4_linear_1_2" x1="21" y1="164.5" x2="467.5" y2="495" gradientUnits="userSpaceOnUse">
<stop stop-color="white"/>
<stop offset="0.342546" stop-color="white" stop-opacity="0"/>
</linearGradient>
<linearGradient id="paint5_linear_1_2" x1="-6.45856e-07" y1="2.06428e-06" x2="204.111" y2="62.8492" gradientUnits="userSpaceOnUse">
<stop stop-color="#CFCFFC"/>
<stop offset="1" stop-color="#CFCFFC" stop-opacity="0"/>
</linearGradient>
</defs>
</svg>
