<svg width="16" height="17" viewBox="0 0 16 17" fill="none" xmlns="http://www.w3.org/2000/svg">
<path d="M14.3041 7.26933C14.3861 7.70867 14.4307 8.168 14.4307 8.64733C14.4307 12.3967 11.9214 15.0627 8.13139 15.0627C7.2695 15.0629 6.416 14.8934 5.61966 14.5636C4.82332 14.2339 4.09975 13.7505 3.4903 13.1411C2.88085 12.5316 2.39746 11.8081 2.06774 11.0117C1.73803 10.2154 1.56846 9.3619 1.56873 8.5C1.56846 7.6381 1.73803 6.7846 2.06774 5.98827C2.39746 5.19193 2.88085 4.46836 3.4903 3.85891C4.09975 3.24946 4.82332 2.76606 5.61966 2.43635C6.416 2.10664 7.2695 1.93707 8.13139 1.93733C9.90339 1.93733 11.3841 2.58933 12.5201 3.648L10.6701 5.498V5.49333C9.98139 4.83733 9.10739 4.50067 8.13139 4.50067C5.96606 4.50067 4.20606 6.33 4.20606 8.496C4.20606 10.6613 5.96606 12.4947 8.13139 12.4947C10.0961 12.4947 11.4334 11.3713 11.7081 9.82867H8.13139V7.26933H14.3047H14.3041Z" fill="#0E0E12"/>
</svg>
