<svg width="40" height="40" viewBox="0 0 40 40" fill="none" xmlns="http://www.w3.org/2000/svg">
<rect width="40" height="40" rx="12" fill="#1ED760"/>
<g clip-path="url(#clip0_4_63)">
<path d="M19.4995 9.03784C13.1678 9.03784 8.03467 14.1708 8.03467 20.5025C8.03467 26.8345 13.1678 31.9671 19.4995 31.9671C25.8319 31.9671 30.9644 26.8345 30.9644 20.5025C30.9644 14.1712 25.8319 9.03839 19.4994 9.03839L19.4995 9.03784ZM24.7572 25.5732C24.5518 25.91 24.111 26.0168 23.7742 25.81C21.0824 24.1658 17.6937 23.7934 13.7029 24.7052C13.3184 24.7928 12.935 24.5519 12.8474 24.1672C12.7594 23.7825 12.9994 23.3991 13.3849 23.3115C17.7522 22.3134 21.4983 22.7434 24.5203 24.5902C24.8571 24.7969 24.9639 25.2364 24.7572 25.5732ZM26.1605 22.4511C25.9017 22.8721 25.3513 23.0049 24.931 22.7461C21.8493 20.8515 17.1517 20.3029 13.5066 21.4094C13.0339 21.5522 12.5346 21.2857 12.3911 20.8138C12.2487 20.3411 12.5153 19.8428 12.9872 19.699C17.1509 18.4357 22.3271 19.0476 25.8661 21.2224C26.2864 21.4811 26.4192 22.0315 26.1605 22.4512V22.4511ZM26.2809 19.2004C22.5859 17.0057 16.4895 16.8039 12.9616 17.8746C12.3951 18.0464 11.796 17.7266 11.6243 17.1601C11.4526 16.5933 11.7722 15.9947 12.3391 15.8224C16.3889 14.593 23.1212 14.8306 27.3753 17.356C27.886 17.6585 28.053 18.3166 27.7505 18.8254C27.4493 19.335 26.7894 19.503 26.2815 19.2004H26.2809Z" fill="white"/>
</g>
<defs>
<clipPath id="clip0_4_63">
<rect width="23" height="23" fill="white" transform="translate(8 9)"/>
</clipPath>
</defs>
</svg>
