<svg width="13" height="16" viewBox="0 0 13 16" fill="none" xmlns="http://www.w3.org/2000/svg">
<path d="M4.27553 12.918C4.02094 12.918 3.81445 12.6978 3.81445 12.4262V9.27868C3.81445 9.00712 4.02091 8.78687 4.27553 8.78687C4.53015 8.78687 4.7366 9.00708 4.7366 9.27868V12.4262C4.73657 12.6978 4.53012 12.918 4.27553 12.918Z" fill="#B3404A"/>
<path d="M6.50014 12.918C6.24555 12.918 6.03906 12.6978 6.03906 12.4262V9.27868C6.03906 9.00712 6.24552 8.78687 6.50014 8.78687C6.75473 8.78687 6.96121 9.00708 6.96121 9.27868V12.4262C6.96121 12.6978 6.75473 12.918 6.50014 12.918Z" fill="#B3404A"/>
<path d="M8.72475 12.918C8.47016 12.918 8.26367 12.6978 8.26367 12.4262V9.27868C8.26367 9.00712 8.47013 8.78687 8.72475 8.78687C8.97936 8.78687 9.18582 9.00708 9.18582 9.27868V12.4262C9.18582 12.6978 8.97936 12.918 8.72475 12.918Z" fill="#B3404A"/>
<path d="M10.5999 2.30331C10.3453 2.30331 10.1388 2.52353 10.1388 2.79513C10.1388 3.06672 10.3452 3.28694 10.5999 3.28694C11.1358 3.28694 11.5719 3.75209 11.5719 4.32381V5.50006H10.9264H2.07402H1.4285V4.32381C1.4285 3.75209 1.86458 3.28694 2.40057 3.28694H7.19181C7.4464 3.28694 7.65288 3.06672 7.65288 2.79513C7.65288 2.52353 7.44643 2.30331 7.19181 2.30331H4.47153V0.983625H8.52892V2.79513C8.52892 3.06669 8.73537 3.28694 8.98999 3.28694C9.24461 3.28694 9.45106 3.06672 9.45106 2.79513V0.491812C9.45106 0.22025 9.24461 0 8.98999 0H4.01046C3.75587 0 3.54938 0.220219 3.54938 0.491812V2.30331H2.40054C1.35607 2.30331 0.506348 3.20972 0.506348 4.32378V5.99181C0.506348 6.26338 0.712803 6.48362 0.967422 6.48362H1.61295V15.5082C1.61295 15.7797 1.8194 16 2.07402 16H10.9264C11.181 16 11.3874 15.7798 11.3874 15.5082V6.48362H12.033C12.2876 6.48362 12.494 6.26341 12.494 5.99181V4.32378C12.494 3.20969 11.6443 2.30331 10.5999 2.30331ZM10.4653 15.0164H2.5351V6.48362H10.4653L10.4653 15.0164Z" fill="#B3404A"/>
</svg>
